<svg xmlns="http://www.w3.org/2000/svg" viewBox="0 0 1280 720" width="1280" height="720">
  <defs>
    <radialGradient id="glow" cx="65%" cy="50%" r="35%">
      <stop offset="0%" style="stop-color:#161625;stop-opacity:1" />
      <stop offset="100%" style="stop-color:#0a0a0a;stop-opacity:1" />
    </radialGradient>
  </defs>

  <rect width="1280" height="720" fill="url(#glow)"/>

  <!-- ── Node graph ── -->
  <!-- Center hub -->
  <circle cx="780" cy="360" r="20" fill="#1a1a2a" stroke="#444" stroke-width="2"/>
  <circle cx="780" cy="360" r="8" fill="#333"/>

  <!-- Spoke nodes -->
  <circle cx="920" cy="260" r="13" fill="#141420" stroke="#383838" stroke-width="1.5"/>
  <circle cx="960" cy="390" r="13" fill="#141420" stroke="#383838" stroke-width="1.5"/>
  <circle cx="880" cy="490" r="13" fill="#141420" stroke="#383838" stroke-width="1.5"/>
  <circle cx="630" cy="255" r="13" fill="#141420" stroke="#383838" stroke-width="1.5"/>
  <circle cx="600" cy="385" r="13" fill="#141420" stroke="#383838" stroke-width="1.5"/>
  <circle cx="660" cy="490" r="13" fill="#141420" stroke="#383838" stroke-width="1.5"/>

  <!-- Lines hub → spokes -->
  <line x1="780" y1="360" x2="920" y2="260" stroke="#2e2e44" stroke-width="1.5"/>
  <line x1="780" y1="360" x2="960" y2="390" stroke="#2e2e44" stroke-width="1.5"/>
  <line x1="780" y1="360" x2="880" y2="490" stroke="#2e2e44" stroke-width="1.5"/>
  <line x1="780" y1="360" x2="630" y2="255" stroke="#2e2e44" stroke-width="1.5"/>
  <line x1="780" y1="360" x2="600" y2="385" stroke="#2e2e44" stroke-width="1.5"/>
  <line x1="780" y1="360" x2="660" y2="490" stroke="#2e2e44" stroke-width="1.5"/>

  <!-- Outer model nodes -->
  <circle cx="1060" cy="210" r="8" fill="#111" stroke="#333" stroke-width="1"/>
  <circle cx="1090" cy="390" r="8" fill="#111" stroke="#333" stroke-width="1"/>
  <circle cx="1010" cy="560" r="8" fill="#111" stroke="#333" stroke-width="1"/>
  <line x1="920" y1="260" x2="1060" y2="210" stroke="#252535" stroke-width="1" stroke-dasharray="5,5"/>
  <line x1="960" y1="390" x2="1090" y2="390" stroke="#252535" stroke-width="1" stroke-dasharray="5,5"/>
  <line x1="880" y1="490" x2="1010" y2="560" stroke="#252535" stroke-width="1" stroke-dasharray="5,5"/>

  <!-- Model labels -->
  <rect x="1070" y="198" width="72" height="22" rx="3" fill="#111" stroke="#2a2a2a" stroke-width="1"/>
  <text x="1106" y="213" font-family="'SF Mono', monospace" font-size="9" fill="#555" text-anchor="middle" letter-spacing="1">GPT-4o</text>
  <rect x="1100" y="378" width="72" height="22" rx="3" fill="#111" stroke="#2a2a2a" stroke-width="1"/>
  <text x="1136" y="393" font-family="'SF Mono', monospace" font-size="9" fill="#555" text-anchor="middle" letter-spacing="1">Claude 3</text>
  <rect x="1020" y="548" width="72" height="22" rx="3" fill="#111" stroke="#2a2a2a" stroke-width="1"/>
  <text x="1056" y="563" font-family="'SF Mono', monospace" font-size="9" fill="#555" text-anchor="middle" letter-spacing="1">Gemini</text>

  <!-- Project title -->
  <text x="80" y="108" font-family="'Inter', sans-serif" font-size="11" fill="#444" letter-spacing="4">02</text>
  <text x="80" y="175" font-family="'Inter', sans-serif" font-size="58" font-weight="700" fill="#ffffff" letter-spacing="-2">OpenRouter</text>
  <text x="80" y="232" font-family="'Inter', sans-serif" font-size="58" font-weight="700" fill="#3a3a3a" letter-spacing="-2">Clone</text>

  <!-- Tag pill -->
  <rect x="80" y="618" width="148" height="28" rx="14" fill="#0e0e1a" stroke="#2a2a2a" stroke-width="1"/>
  <text x="154" y="637" font-family="'SF Mono', monospace" font-size="11" fill="#555" text-anchor="middle" letter-spacing="2">AI · API GATEWAY</text>

  <text x="1200" y="675" font-family="'Inter', sans-serif" font-size="10" fill="#222" text-anchor="end" letter-spacing="3">UNIFIED LLM INTERFACE</text>
</svg>
