<svg xmlns="http://www.w3.org/2000/svg" viewBox="0 0 1280 720" width="1280" height="720">
  <defs>
    <linearGradient id="bg" x1="0%" y1="0%" x2="100%" y2="100%">
      <stop offset="0%" style="stop-color:#080808;stop-opacity:1" />
      <stop offset="100%" style="stop-color:#0f0f0f;stop-opacity:1" />
    </linearGradient>
    <radialGradient id="glow-center" cx="70%" cy="50%" r="40%">
      <stop offset="0%" style="stop-color:#1a1a2e;stop-opacity:0.6" />
      <stop offset="100%" style="stop-color:#080808;stop-opacity:0" />
    </radialGradient>
  </defs>

  <!-- Background -->
  <rect width="1280" height="720" fill="url(#bg)"/>
  <rect width="1280" height="720" fill="url(#glow-center)"/>

  <!-- Connection nodes — neural/routing network visual -->
  <!-- Central node -->
  <circle cx="760" cy="360" r="16" fill="#1a1a1a" stroke="#2a2a2a" stroke-width="2"/>

  <!-- Surrounding nodes -->
  <circle cx="900" cy="260" r="10" fill="#141414" stroke="#222" stroke-width="1.5"/>
  <circle cx="940" cy="380" r="10" fill="#141414" stroke="#222" stroke-width="1.5"/>
  <circle cx="880" cy="480" r="10" fill="#141414" stroke="#222" stroke-width="1.5"/>
  <circle cx="620" cy="260" r="10" fill="#141414" stroke="#222" stroke-width="1.5"/>
  <circle cx="600" cy="380" r="10" fill="#141414" stroke="#222" stroke-width="1.5"/>
  <circle cx="650" cy="480" r="10" fill="#141414" stroke="#222" stroke-width="1.5"/>

  <!-- Lines connecting nodes -->
  <line x1="760" y1="360" x2="900" y2="260" stroke="#1e1e1e" stroke-width="1.5"/>
  <line x1="760" y1="360" x2="940" y2="380" stroke="#1e1e1e" stroke-width="1.5"/>
  <line x1="760" y1="360" x2="880" y2="480" stroke="#1e1e1e" stroke-width="1.5"/>
  <line x1="760" y1="360" x2="620" y2="260" stroke="#1e1e1e" stroke-width="1.5"/>
  <line x1="760" y1="360" x2="600" y2="380" stroke="#1e1e1e" stroke-width="1.5"/>
  <line x1="760" y1="360" x2="650" y2="480" stroke="#1e1e1e" stroke-width="1.5"/>

  <!-- Outer nodes -->
  <circle cx="1020" cy="200" r="6" fill="#111" stroke="#1e1e1e" stroke-width="1"/>
  <circle cx="1060" cy="380" r="6" fill="#111" stroke="#1e1e1e" stroke-width="1"/>
  <circle cx="980" cy="540" r="6" fill="#111" stroke="#1e1e1e" stroke-width="1"/>
  <line x1="900" y1="260" x2="1020" y2="200" stroke="#191919" stroke-width="1" stroke-dasharray="4,4"/>
  <line x1="940" y1="380" x2="1060" y2="380" stroke="#191919" stroke-width="1" stroke-dasharray="4,4"/>
  <line x1="880" y1="480" x2="980" y2="540" stroke="#191919" stroke-width="1" stroke-dasharray="4,4"/>

  <!-- Model labels -->
  <rect x="1030" y="188" width="80" height="22" rx="3" fill="#111" stroke="#1e1e1e" stroke-width="1"/>
  <text x="1070" y="203" font-family="'SF Mono', monospace" font-size="9" fill="#333" text-anchor="middle" letter-spacing="1">GPT-4o</text>

  <rect x="1070" y="368" width="80" height="22" rx="3" fill="#111" stroke="#1e1e1e" stroke-width="1"/>
  <text x="1110" y="383" font-family="'SF Mono', monospace" font-size="9" fill="#333" text-anchor="middle" letter-spacing="1">Claude</text>

  <rect x="990" y="528" width="80" height="22" rx="3" fill="#111" stroke="#1e1e1e" stroke-width="1"/>
  <text x="1030" y="543" font-family="'SF Mono', monospace" font-size="9" fill="#333" text-anchor="middle" letter-spacing="1">Gemini</text>

  <!-- Tag -->
  <rect x="80" y="580" width="148" height="28" rx="14" fill="#0e0e0e" stroke="#1e1e1e" stroke-width="1"/>
  <text x="154" y="599" font-family="'SF Mono', monospace" font-size="11" fill="#333" text-anchor="middle" letter-spacing="2">AI · API GATEWAY</text>

  <!-- Project number -->
  <text x="80" y="100" font-family="'Inter', sans-serif" font-size="13" fill="#222" letter-spacing="4">02</text>

  <!-- Project title -->
  <text x="80" y="160" font-family="'Inter', 'Helvetica Neue', sans-serif" font-size="52" font-weight="700" fill="#ffffff" letter-spacing="-2">OpenRouter</text>
  <text x="80" y="215" font-family="'Inter', 'Helvetica Neue', sans-serif" font-size="52" font-weight="700" fill="#2a2a2a" letter-spacing="-2">Clone</text>

  <!-- Subtitle -->
  <text x="1200" y="650" font-family="'Inter', sans-serif" font-size="11" fill="#222" text-anchor="end" letter-spacing="3">UNIFIED LLM INTERFACE</text>
</svg>
